<svg id="Layer_1" data-name="Layer 1" xmlns="http://www.w3.org/2000/svg" viewBox="0 0 512 512"><defs><style>.cls-1{fill:#141f38;}</style></defs><title>price-tag-1-outline</title><path class="cls-1" d="M215.8,512a76.1,76.1,0,0,1-54.17-22.44L22.44,350.37a76.59,76.59,0,0,1,0-108.32L242,22.44A76.11,76.11,0,0,1,296.2,0H435.4A76.69,76.69,0,0,1,512,76.6V215.79A76.08,76.08,0,0,1,489.56,270L270,489.56A76.09,76.09,0,0,1,215.8,512ZM296.2,25.6a50.69,50.69,0,0,0-36.06,14.94L40.54,260.14a51,51,0,0,0,0,72.13L179.73,471.46a51,51,0,0,0,72.13,0l219.6-219.61a50.67,50.67,0,0,0,14.94-36.06V76.6a51.06,51.06,0,0,0-51-51ZM422.64,127.68A38.32,38.32,0,1,1,461,89.36,38.37,38.37,0,0,1,422.64,127.68Zm0-51a12.72,12.72,0,1,0,12.72,12.72A12.73,12.73,0,0,0,422.64,76.64Z"/><path class="cls-1" d="M217.56,422.4a44.61,44.61,0,0,1-31.76-13.16l-83-83a45,45,0,0,1,0-63.52h0L211.49,154A44.91,44.91,0,0,1,275,154l83,83a45,45,0,0,1,0,63.52L249.31,409.24A44.59,44.59,0,0,1,217.56,422.4Zm-96.7-141.61a19.34,19.34,0,0,0,0,27.32l83,83a19.77,19.77,0,0,0,27.31,0L339.94,282.41a19.34,19.34,0,0,0,0-27.32l-83-83a19.77,19.77,0,0,0-27.31,0L120.86,280.79Z"/><path class="cls-1" d="M294.4,281.6a12.75,12.75,0,0,1-9-3.75l-51.2-51.2a12.8,12.8,0,0,1,18.1-18.1l51.2,51.2a12.8,12.8,0,0,1-9.05,21.85Z"/><path class="cls-1" d="M256,320a12.75,12.75,0,0,1-9.05-3.75l-51.2-51.2a12.8,12.8,0,0,1,18.1-18.1l51.2,51.2A12.8,12.8,0,0,1,256,320Z"/><path class="cls-1" d="M217.6,358.4a12.75,12.75,0,0,1-9-3.75l-51.2-51.2a12.8,12.8,0,1,1,18.1-18.1l51.2,51.2a12.8,12.8,0,0,1-9.05,21.85Z"/></svg>